<svg width="102" height="24" viewBox="0 0 102 24" fill="none" xmlns="http://www.w3.org/2000/svg">
<path d="M0.36 23V0.599998H3.56V23H0.36ZM56.626 23.256C54.9193 23.256 53.3407 22.9787 51.89 22.424C50.4607 21.848 49.2127 21.048 48.146 20.024C47.1007 18.9787 46.2793 17.7627 45.682 16.376C45.0847 14.9893 44.786 13.464 44.786 11.8C44.786 10.136 45.0847 8.61067 45.682 7.224C46.2793 5.83733 47.1113 4.632 48.178 3.608C49.2447 2.56267 50.4927 1.76267 51.922 1.208C53.3727 0.631999 54.9513 0.344 56.658 0.344C58.386 0.344 59.9753 0.642666 61.426 1.24C62.898 1.816 64.146 2.68 65.17 3.832L63.09 5.848C62.2367 4.952 61.2767 4.29067 60.21 3.864C59.1433 3.416 58.002 3.192 56.786 3.192C55.5273 3.192 54.354 3.40533 53.266 3.832C52.1993 4.25867 51.2713 4.856 50.482 5.624C49.6927 6.392 49.074 7.30933 48.626 8.376C48.1993 9.42133 47.986 10.5627 47.986 11.8C47.986 13.0373 48.1993 14.1893 48.626 15.256C49.074 16.3013 49.6927 17.208 50.482 17.976C51.2713 18.744 52.1993 19.3413 53.266 19.768C54.354 20.1947 55.5273 20.408 56.786 20.408C58.002 20.408 59.1433 20.1947 60.21 19.768C61.2767 19.32 62.2367 18.6373 63.09 17.72L65.17 19.736C64.146 20.888 62.898 21.7627 61.426 22.36C59.9753 22.9573 58.3753 23.256 56.626 23.256ZM69.735 23V0.599998H72.935V23H69.735ZM89.7533 23.256C88.0466 23.256 86.4573 22.968 84.9853 22.392C83.5346 21.816 82.2759 21.016 81.2093 19.992C80.1426 18.9467 79.3106 17.7307 78.7133 16.344C78.1159 14.9573 77.8173 13.4427 77.8173 11.8C77.8173 10.1573 78.1159 8.64267 78.7133 7.256C79.3106 5.86933 80.1426 4.664 81.2093 3.64C82.2759 2.59467 83.5346 1.784 84.9853 1.208C86.4359 0.631999 88.0253 0.344 89.7533 0.344C91.4599 0.344 93.0279 0.631999 94.4573 1.208C95.9079 1.76267 97.1666 2.56267 98.2333 3.608C99.3213 4.632 100.153 5.83733 100.729 7.224C101.327 8.61067 101.625 10.136 101.625 11.8C101.625 13.464 101.327 14.9893 100.729 16.376C100.153 17.7627 99.3213 18.9787 98.2333 20.024C97.1666 21.048 95.9079 21.848 94.4573 22.424C93.0279 22.9787 91.4599 23.256 89.7533 23.256ZM89.7533 20.408C90.9906 20.408 92.1319 20.1947 93.1772 19.768C94.2439 19.3413 95.1613 18.744 95.9293 17.976C96.7186 17.1867 97.3266 16.2693 97.7533 15.224C98.2013 14.1787 98.4253 13.0373 98.4253 11.8C98.4253 10.5627 98.2013 9.42133 97.7533 8.376C97.3266 7.33067 96.7186 6.424 95.9293 5.656C95.1613 4.86666 94.2439 4.25867 93.1772 3.832C92.1319 3.40533 90.9906 3.192 89.7533 3.192C88.4946 3.192 87.3319 3.40533 86.2653 3.832C85.2199 4.25867 84.3026 4.86666 83.5133 5.656C82.7239 6.424 82.1053 7.33067 81.6573 8.376C81.2306 9.42133 81.0173 10.5627 81.0173 11.8C81.0173 13.0373 81.2306 14.1787 81.6573 15.224C82.1053 16.2693 82.7239 17.1867 83.5133 17.976C84.3026 18.744 85.2199 19.3413 86.2653 19.768C87.3319 20.1947 88.4946 20.408 89.7533 20.408Z" fill="black"/>
<path d="M9.56225 23V0.599998H13.8503L27.0663 16.728H24.9862V0.599998H30.1063V23H25.8503L12.6023 6.872H14.6823V23H9.56225ZM35.406 23V0.599998H40.59V23H35.406Z" fill="#B33636"/>
</svg>
